<svg xmlns="http://www.w3.org/2000/svg" width="480" height="224" viewBox="0 0 480 224" role="img" aria-label="RL Playground — 从 Q-learning 到 Actor-Critic，把强化学习算法亲手跑一遍。">
<title>RL Playground — 从 Q-learning 到 Actor-Critic，把强化学习算法亲手跑一遍。</title>
<rect x="7" y="10" width="466" height="211" rx="13" fill="#2b3e31"/>
<path d="M20 5Q8 5 7 18L5 199Q5 212 20 213L458 215Q473 215 474 199L472 20Q472 6 458 7Z" fill="#192721" stroke="#435647" stroke-width="1.3"/>
<text x="28" y="34" font-family="'SFMono-Regular', Consolas, monospace" font-size="11" fill="#b1bbaa" letter-spacing="1.1">02 / LEARNING BY DOING</text>
<text x="28" y="76" font-family="Georgia, serif" font-size="29" fill="#eee9dc" >RL Playground</text>
<path d="M29 87q47-3 80 0" fill="none" stroke="#eda775" stroke-width="2" stroke-linecap="round"/>
<text x="28" y="119" font-family="'Trebuchet MS', 'PingFang SC', 'Microsoft YaHei', Arial, sans-serif" font-size="17" fill="#eee9dc" >从 Q-learning 到 Actor-Critic，</text>
<text x="28" y="146" font-family="'Trebuchet MS', 'PingFang SC', 'Microsoft YaHei', Arial, sans-serif" font-size="17" fill="#eee9dc" >把强化学习算法亲手跑一遍。</text>
<g transform="translate(370 26) rotate(3 35 35)" fill="none" stroke="#eee9dc" stroke-width="1.7" stroke-linecap="round" stroke-linejoin="round"><rect x="2" y="8" width="60" height="56" rx="4" fill="#2b3e31"/><path d="M17 8v56M32 8v56M47 8v56M2 22h60M2 36h60M2 50h60" stroke="#435647"/><path d="M9 57V29h31V15h15" stroke="#eda775" stroke-dasharray="3 5"/><path d="m53 9 3 5 6 1-4 4 1 6-6-3-5 3 1-6-4-4 6-1Z" fill="#eda775" stroke="#eda775"/><circle cx="9" cy="57" r="4" fill="#eee9dc"/></g>
<path d="M28 166q217 1 421-1" fill="none" stroke="#435647" stroke-dasharray="2 4"/>
<text x="28" y="193" font-family="'SFMono-Regular', Consolas, monospace" font-size="11" fill="#b1bbaa" letter-spacing="0.3">PYTHON · DQN · POLICY GRADIENT</text>
<g fill="none" stroke="#eda775" stroke-width="1.8" stroke-linecap="round"><path d="m423 194 18-16m-16 0h16v15"/></g>
</svg>
