<svg xmlns="http://www.w3.org/2000/svg" width="480" height="224" viewBox="0 0 480 224" role="img" aria-label="Learning Notes — 沿着公式、代码与 Tensor 图，留下一条可以重走的学习路径。">
<title>Learning Notes — 沿着公式、代码与 Tensor 图，留下一条可以重走的学习路径。</title>
<rect x="7" y="10" width="466" height="211" rx="13" fill="#e8ecdf"/>
<path d="M20 5Q8 5 7 18L5 199Q5 212 20 213L458 215Q473 215 474 199L472 20Q472 6 458 7Z" fill="#fbf7ee" stroke="#cecdbd" stroke-width="1.3"/>
<text x="28" y="34" font-family="'SFMono-Regular', Consolas, monospace" font-size="11" fill="#6c786e" letter-spacing="1.1">03 / NOTES IN THE MARGINS</text>
<text x="28" y="76" font-family="Georgia, serif" font-size="29" fill="#2f4339" >Learning Notes</text>
<path d="M29 87q47-3 80 0" fill="none" stroke="#b96d42" stroke-width="2" stroke-linecap="round"/>
<text x="28" y="119" font-family="'Trebuchet MS', 'PingFang SC', 'Microsoft YaHei', Arial, sans-serif" font-size="17" fill="#2f4339" >沿着公式、代码与 Tensor 图，</text>
<text x="28" y="146" font-family="'Trebuchet MS', 'PingFang SC', 'Microsoft YaHei', Arial, sans-serif" font-size="17" fill="#2f4339" >留下一条可以重走的学习路径。</text>
<g transform="translate(370 26) rotate(3 35 35)" fill="none" stroke="#2f4339" stroke-width="1.7" stroke-linecap="round" stroke-linejoin="round"><path d="M1 17Q18 11 32 19Q48 10 65 15L67 62Q47 57 33 65Q17 57 3 63Z" fill="#e8ecdf"/><path d="M32 20l1 45M10 28l14-1m-13 10 13-1m-12 10 12-1m19-14 15-3m-15 13 16-2m-15 11 14-2"/><path d="M43 18Q36-2 51 2Q53 14 43 18ZM43 18Q61 9 66 0Q48-3 43 18Z" fill="#b96d42" stroke="#b96d42"/></g>
<path d="M28 166q217 1 421-1" fill="none" stroke="#cecdbd" stroke-dasharray="2 4"/>
<text x="28" y="193" font-family="'SFMono-Regular', Consolas, monospace" font-size="11" fill="#6c786e" letter-spacing="0.3">ASTRO · MDX · MODEL ARCHITECTURE</text>
<g fill="none" stroke="#b96d42" stroke-width="1.8" stroke-linecap="round"><path d="m423 194 18-16m-16 0h16v15"/></g>
</svg>
