<svg xmlns="http://www.w3.org/2000/svg" width="480" height="224" viewBox="0 0 480 224" role="img" aria-label="Product Release — 把中文 NLP 与商品发布连接起来，让一个模型走进具体的使用场景。">
<title>Product Release — 把中文 NLP 与商品发布连接起来，让一个模型走进具体的使用场景。</title>
<rect x="7" y="10" width="466" height="211" rx="13" fill="#2b3e31"/>
<path d="M20 5Q8 5 7 18L5 199Q5 212 20 213L458 215Q473 215 474 199L472 20Q472 6 458 7Z" fill="#192721" stroke="#435647" stroke-width="1.3"/>
<text x="28" y="34" font-family="'SFMono-Regular', Consolas, monospace" font-size="11" fill="#b1bbaa" letter-spacing="1.1">04 / LANGUAGE INTO TOOLS</text>
<text x="28" y="76" font-family="Georgia, serif" font-size="29" fill="#eee9dc" >Product Release</text>
<path d="M29 87q47-3 80 0" fill="none" stroke="#eda775" stroke-width="2" stroke-linecap="round"/>
<text x="28" y="119" font-family="'Trebuchet MS', 'PingFang SC', 'Microsoft YaHei', Arial, sans-serif" font-size="17" fill="#eee9dc" >把中文 NLP 与商品发布连接起来，</text>
<text x="28" y="146" font-family="'Trebuchet MS', 'PingFang SC', 'Microsoft YaHei', Arial, sans-serif" font-size="17" fill="#eee9dc" >让一个模型走进具体的使用场景。</text>
<g transform="translate(370 26) rotate(3 35 35)" fill="none" stroke="#eee9dc" stroke-width="1.7" stroke-linecap="round" stroke-linejoin="round"><path d="m5 27 27-13 28 13-28 14Z" fill="#2b3e31"/><path d="M5 27v28l27 15 28-15V27M32 41v29M18 21l28 14v14l-8 4V39"/><path d="M55 4v13m-6-7h13M4 5v9m-4-4h8" stroke="#eda775"/><path d="m13 46 10 5" stroke="#eda775"/></g>
<path d="M28 166q217 1 421-1" fill="none" stroke="#435647" stroke-dasharray="2 4"/>
<text x="28" y="193" font-family="'SFMono-Regular', Consolas, monospace" font-size="11" fill="#b1bbaa" letter-spacing="0.3">PYTHON · BERT · FASTAPI</text>
<g fill="none" stroke="#eda775" stroke-width="1.8" stroke-linecap="round"><path d="m423 194 18-16m-16 0h16v15"/></g>
</svg>
